<?xml version="1.0" encoding="utf-8"?>
<!-- Generator: Adobe Illustrator 16.0.4, SVG Export Plug-In . SVG Version: 6.00 Build 0)  -->
<!DOCTYPE svg PUBLIC "-//W3C//DTD SVG 1.1//EN" "http://www.w3.org/Graphics/SVG/1.1/DTD/svg11.dtd">
<svg version="1.1" id="Layer_1" xmlns="http://www.w3.org/2000/svg" xmlns:xlink="http://www.w3.org/1999/xlink" x="0px" y="0px"
	 width="100px" height="100px" viewBox="0 0 100 100" enable-background="new 0 0 100 100" xml:space="preserve">
<g id="vKXXKy.tif">
	<g>
		<path fill="#FFFFFF" d="M12.502,86.92c0.349-1.783,0.694-3.57,1.063-5.347c0.333-1.604,0.699-3.202,1.042-4.806
			c0.281-1.307,0.547-2.618,0.83-3.926c0.491-2.28,1.096-4.546,1.446-6.847c0.214-1.399,1.171-2.129,2.02-2.983
			c5.811-5.831,11.641-11.644,17.467-17.459c6.34-6.329,12.688-12.65,19.023-18.983c4.432-4.431,8.855-8.873,13.267-13.324
			c0.521-0.525,1.049-0.896,1.592-0.755c2.172,0.149,3.977,0.771,5.646,1.708c4.007,2.242,7.17,5.39,9.562,9.292
			c1.151,1.879,1.919,3.921,2.047,6.167c0.039,0.692-0.214,1.167-0.682,1.633c-3.38,3.351-6.742,6.716-10.105,10.079
			c-5.871,5.866-11.742,11.729-17.608,17.6c-6.448,6.453-12.89,12.913-19.334,19.369c-1.146,1.153-2.351,2.252-3.425,3.47
			c-0.839,0.951-1.91,1.247-3.049,1.478c-2.194,0.45-4.395,0.87-6.584,1.34c-1.705,0.365-3.39,0.821-5.094,1.181
			c-2.755,0.58-5.517,1.111-8.276,1.663c-0.094,0.018-0.189,0.035-0.282,0.054C12.351,87.662,12.502,86.921,12.502,86.92z"/>
	</g>
</g>
</svg>
