<?xml version="1.0" encoding="utf-8"?>
<!-- Generator: Adobe Illustrator 16.0.4, SVG Export Plug-In . SVG Version: 6.00 Build 0)  -->
<!DOCTYPE svg PUBLIC "-//W3C//DTD SVG 1.1//EN" "http://www.w3.org/Graphics/SVG/1.1/DTD/svg11.dtd">
<svg version="1.1" id="Layer_1" xmlns="http://www.w3.org/2000/svg" xmlns:xlink="http://www.w3.org/1999/xlink" x="0px" y="0px"
	 width="50px" height="50px" viewBox="0 0 50 50" enable-background="new 0 0 50 50" xml:space="preserve">
<circle fill="#1A0C0C" cx="25" cy="25" r="25"/>
<g id="uXR7aG.tif">
	<g>
		<path fill="#FFFFFF" d="M42.472,37.154v0.082c-0.329-0.264-0.538-0.409-0.723-0.582c-1.667-1.561-3.53-2.79-5.696-3.569
			c-1.798-0.646-3.562-1.387-5.344-2.082c-0.784-0.306-1.037-0.979-0.787-1.809c0.264-0.873,0.403-1.783,0.644-2.665
			c0.112-0.412,0.324-0.801,0.509-1.191c0.256-0.54,0.67-1.046,0.766-1.61c0.182-1.068,0.186-2.167,0.262-3.253
			c0.007-0.105,0.036-0.239-0.014-0.314c-0.9-1.378-0.25-2.873-0.25-4.294c0-1.469-0.211-2.681-1.396-3.678
			c-1.095-0.922-2.062-1.994-3.121-2.96c-0.3-0.273-0.705-0.486-1.099-0.59c-1.168-0.309-1.175-0.282-1.054-1.658
			c-2.271,1.211-4.486,2.35-6.659,3.566c-1.566,0.876-2.494,2.187-2.437,4.08c0.047,1.564,0.057,3.13,0.036,4.695
			c-0.004,0.281-0.233,0.562-0.371,0.837c-0.092,0.184-0.287,0.354-0.295,0.536c-0.059,1.354-0.14,2.719,0.459,3.996
			c0.121,0.256,0.283,0.568,0.512,0.684c0.704,0.356,0.873,0.919,0.853,1.638c-0.028,0.986,0.449,1.771,1.05,2.512
			c0.839,1.036,0.683,1.634-0.458,2.21c-2.841,1.433-5.823,2.616-8.303,4.688c-0.568,0.476-1.139,0.948-1.708,1.422v4.766
			c0.767,0.01,1.53,0.062,2.278,0.265c0.084,0.022,0.112,1.078,0.119,2.149h29.382c-0.016-1.269-0.019-3.473,0.124-3.524
			c0.957-0.35,1.896-0.675,2.881-0.811c0-1.13,0-2.26-0.001-3.389C42.577,37.252,42.525,37.202,42.472,37.154z"/>
		<path fill-rule="evenodd" clip-rule="evenodd" d="M38.75,20c-0.135-0.019-0.109-4.689-0.106-4.394
			c-0.034-3.437-0.042-6.875-0.043-10.312H11.362c-0.081,4.171-0.249,12.81-0.112,12.831c-1.142-0.18-2.273-0.12-3.403,0.008v19.712
			c0.569-0.474,1.14-0.946,1.708-1.422c2.479-2.072,5.462-3.256,8.303-4.688c1.142-0.576,1.298-1.174,0.458-2.21
			c-0.601-0.741-1.078-1.525-1.05-2.512c0.021-0.719-0.148-1.282-0.853-1.638c-0.229-0.116-0.392-0.428-0.512-0.684
			c-0.599-1.276-0.518-2.641-0.459-3.996c0.008-0.182,0.204-0.352,0.295-0.536c0.137-0.275,0.367-0.556,0.371-0.837
			c0.021-1.565,0.011-3.131-0.036-4.695c-0.057-1.893,0.871-3.203,2.437-4.08c2.172-1.216,4.388-2.354,6.659-3.566
			c-0.121,1.375-0.114,1.349,1.054,1.658c0.394,0.104,0.799,0.317,1.099,0.59c1.06,0.966,2.026,2.038,3.121,2.96
			c1.185,0.997,1.396,2.209,1.396,3.678c0,1.422-0.65,2.916,0.25,4.294c0.05,0.076,0.021,0.209,0.014,0.314
			c-0.076,1.086-0.08,2.185-0.262,3.253c-0.096,0.563-0.51,1.07-0.766,1.61c-0.185,0.39-0.396,0.779-0.509,1.191
			c-0.24,0.882-0.38,1.792-0.644,2.665c-0.25,0.829,0.003,1.503,0.787,1.809c1.781,0.695,3.546,1.436,5.344,2.082
			c2.166,0.779,4.029,2.009,5.696,3.569c0.185,0.173,0.394,0.318,0.723,0.582V20.58C41.229,20.417,39.996,20.177,38.75,20z"/>
	</g>
</g>
</svg>
