<?xml version="1.0" encoding="utf-8"?>
<!-- Generator: Adobe Illustrator 16.0.4, SVG Export Plug-In . SVG Version: 6.00 Build 0)  -->
<!DOCTYPE svg PUBLIC "-//W3C//DTD SVG 1.1//EN" "http://www.w3.org/Graphics/SVG/1.1/DTD/svg11.dtd">
<svg version="1.1" id="Layer_1" xmlns="http://www.w3.org/2000/svg" xmlns:xlink="http://www.w3.org/1999/xlink" x="0px" y="0px"
	 width="50px" height="50px" viewBox="0 0 50 50" enable-background="new 0 0 50 50" xml:space="preserve">
<g id="yjmVOv.tif">
	<g>
		<path fill="#FFFFFF" d="M38.838,43.923c-9.668,0-19.336,0-29.004,0c-0.072-0.03-0.141-0.074-0.216-0.088
			c-4.654-0.794-7.649-3.475-9.037-7.969c-0.155-0.504-0.235-1.031-0.35-1.547c0-0.841,0-1.682,0-2.521
			c0.029-0.075,0.072-0.146,0.085-0.224c0.727-4.367,3.188-7.3,7.329-8.831C7.929,22.638,7.986,22.5,8,22.222
			c0.039-0.739,0.056-1.489,0.201-2.21c1.146-5.681,6.644-9.613,12.628-8.511c0.352,0.065,0.576,0.021,0.819-0.281
			c1.641-2.034,3.739-3.393,6.25-4.101c0.662-0.187,1.344-0.299,2.017-0.446c0.904,0,1.811,0,2.716,0
			c0.088,0.031,0.175,0.076,0.265,0.09c4.659,0.725,7.941,3.257,9.854,7.551c0.908,2.036,1.096,4.189,0.863,6.389
			c0.105,0.069,0.2,0.131,0.295,0.19c2.783,1.719,4.639,4.149,5.551,7.289c0.188,0.643,0.294,1.309,0.438,1.965
			c0,0.905,0,1.812,0,2.717c-0.03,0.088-0.075,0.174-0.092,0.265c-0.866,5.232-3.828,8.67-8.864,10.31
			C40.26,43.659,39.539,43.764,38.838,43.923z M22.68,15.482c-3.306-1.791-6.635-1.087-8.76,0.773
			c-2.84,2.485-3.444,5.575-2.156,9.112c-0.253-0.016-0.49-0.041-0.727-0.043c-5.07-0.052-8.829,5.019-7.36,9.927
			c1.027,3.429,4.03,5.566,7.844,5.567c8.501,0.003,17.002,0.006,25.503-0.009c0.803-0.001,1.622-0.06,2.404-0.227
			c3.83-0.823,6.723-3.949,7.259-7.777c0.545-3.874-1.384-7.624-4.899-9.48c-0.594-0.313-1.235-0.535-1.856-0.799
			c2.167-5.97-1.62-10.734-5.326-12.122C30.278,8.785,24.92,10.491,22.68,15.482z"/>
		<path fill-rule="evenodd" clip-rule="evenodd" fill="#FFFFFF" d="M15.864,28.398c3.088-3.088,6.157-6.156,9.183-9.182
			c3.023,3.023,6.099,6.1,9.173,9.174c-1.959,0-3.981,0-6.038,0c0,3.118,0,6.183,0,9.284c-2.076,0-4.118,0-6.211,0
			c0-3.071,0-6.147,0-9.276C19.895,28.398,17.873,28.398,15.864,28.398z"/>
	</g>
</g>
</svg>
